{"title":"Rush 2013 NEWCAM XviD READNFO-INFERNO [P2PDL]","uid":9045331,"size":1394822387,"categoryP":"video","categoryS":"movies","magnet":"?xt=urn:btih:c4439609e3bf3391772d76cca4dd4419819afc2d&amp;dn=Rush+2013+NEWCAM+XviD+READNFO-INFERNO+%5BP2PDL%5D&amp;tr=udp%3A%2F%2Ftracker.openbittorrent.com%3A80&amp;tr=udp%3A%2F%2Fopen.demonii.com%3A1337&amp;tr=udp%3A%2F%2Ftracker.coppersurfer.tk%3A6969&amp;tr=udp%3A%2F%2Fexodus.desync.com%3A6969","seeders":2,"leechers":0,"uploader":"TeX","files":4,"time":1381732986,"description":" &lt;a href=&quot;http://lookpic.com/O/i2/455/aDe6N0pp.jpeg&quot; rel=&quot;nofollow&quot; target=&quot;_NEW&quot;&gt;http://lookpic.com/O/i2/455/aDe6N0pp.jpeg&lt;/a&gt;\n\n\nSource:[German/English] Rush 2013 NEW CAM/TS DUAL AUDIO READNFO XViD MP3 MURDER...THANKS\n\nAudio:UNiQUE's/KiNGofJeFFs....Thanks\n &lt;a href=&quot;\nhttp://www.imdb.com/title/tt1979320/&quot; rel=&quot;nofollow&quot; target=&quot;_NEW&quot;&gt;\nhttp://www.imdb.com/title/tt1979320/&lt;/a&gt;\n\nFormat                           : AVI\nFormat/Info                      : Audio Video Interleave\nFile size                        : 1.29 GiB\nDuration                         : 1h 52mn\nOverall bit rate                 : 1 636 Kbps\nWriting library                  : VirtualDub build 35390/release\n\nVideo\nID                               : 0\nFormat                           : MPEG-4 Visual\nFormat profile                   : Advanced Simple@L5\nFormat settings, BVOP            : Yes\nFormat settings, QPel            : No\nFormat settings, GMC             : No warppoints\nFormat settings, Matrix          : Default (H.263)\nMuxing mode                      : Packed bitstream\nCodec ID                         : XVID\nCodec ID/Hint                    : XviD\nDuration                         : 1h 52mn\nBit rate                         : 1 499 Kbps\nWidth                            : 720 pixels\nHeight                           : 384 pixels\nDisplay aspect ratio             : 1.875\nFrame rate                       : 25.000 fps\nColor space                      : YUV\nChroma subsampling               : 4:2:0\nBit depth                        : 8 bits\nScan type                        : Progressive\nBits/(Pixel*Frame)               : 0.217\nStream size                      : 1.18 GiB (92%)\nWriting library                  : XviD 1.2.1 (UTC 2008-12-04)\n\nAudio\nID                               : 1\nFormat                           : MPEG Audio\nFormat version                   : Version 1\nFormat profile                   : Layer 3\nMode                             : Joint stereo\nMode extension                   : MS Stereo\nCodec ID                         : 55\nCodec ID/Hint                    : MP3\nDuration                         : 1h 52mn\nBit rate mode                    : Constant\nBit rate                         : 128 Kbps\nChannel(s)                       : 2 channels\nSampling rate                    : 48.0 KHz\nStream size                      : 103 MiB (8%)\nAlignment                        : Split accross interleaves\nInterleave, duration             : 40 ms (1.00 video frame)\nInterleave, preload duration     : 500 ms\n\nWorkdone:\nWell had issues finding source's on this, as we heard there a italian and german source. So im guess this is the German source which we could be wrong, since Murder group doesnt always tag there stuff correctly. First we notice video goes out of focus during dark spot and comes back in, but didnt seem to bother me much. What would of been nice is to have some subtitles for the non-english part which we werent able to get, sorry. We did the usual filters to clean up video which we wont bother you with.\n\nAudio:\nNot sure if there was another source of audio for this but we went with UNiQUE's and clean it up, by taking the noise out and adjusting the mid's and a few enhancements. It seem that the audio was shrink to fit video, so audio wasn't perfectly in sync, so we did a few cut's and paste here and there to get sync right, not sure if perfect but better then it was.\n\nTEAM INFERNO","torrent":{"xt":"urn:btih:c4439609e3bf3391772d76cca4dd4419819afc2d","amp;dn":"Rush+2013+NEWCAM+XviD+READNFO-INFERNO+%5BP2PDL%5D","amp;tr":["udp%3A%2F%2Ftracker.openbittorrent.com%3A80","udp%3A%2F%2Fopen.demonii.com%3A1337","udp%3A%2F%2Ftracker.coppersurfer.tk%3A6969","udp%3A%2F%2Fexodus.desync.com%3A6969"],"infoHash":"c4439609e3bf3391772d76cca4dd4419819afc2d","infoHashBuffer":{"type":"Buffer","data":[196,67,150,9,227,191,51,145,119,45,118,204,164,221,68,25,129,154,252,45]},"announce":[],"urlList":[]}}